<svg width="50" height="52" viewBox="0 0 50 52" fill="none" xmlns="http://www.w3.org/2000/svg">
<path d="M14.8589 19.3453C14.8589 13.631 19.4912 8.99867 25.2056 8.99864C30.9199 8.99864 35.5522 13.631 35.5522 19.3453C35.5522 25.0596 30.9199 29.692 25.2056 29.692C19.4913 29.692 14.8589 25.0596 14.8589 19.3453ZM18.7573 19.3453C18.7574 22.9064 21.6445 25.7935 25.2056 25.7936C28.7667 25.7936 31.6538 22.9064 31.6538 19.3453C31.6538 15.7842 28.7667 12.8971 25.2056 12.8971C21.6445 12.8971 18.7573 15.7842 18.7573 19.3453Z" fill="#4A6CF7"/>
<path d="M24.9561 36.9902C24.9561 34.0641 27.3279 31.6916 30.2539 31.6913C33.1801 31.6913 35.5527 34.064 35.5527 36.9902C35.5525 39.9161 33.1799 42.288 30.2539 42.288C27.3281 42.2878 24.9563 39.916 24.9561 36.9902ZM27.5557 36.9902C27.5559 38.4805 28.7636 39.6882 30.2539 39.6884C31.7445 39.6884 32.9529 38.4807 32.9531 36.9902C32.9531 35.4995 31.7446 34.291 30.2539 34.291C28.7634 34.2912 27.5557 35.4996 27.5557 36.9902Z" fill="#4A6CF7"/>
<path d="M20.6572 44.6374C20.6572 43.5609 21.5299 42.6883 22.6064 42.6882C23.6831 42.6882 24.5557 43.5608 24.5557 44.6374C24.5556 45.714 23.683 46.5867 22.6064 46.5867C21.53 46.5866 20.6573 45.7139 20.6572 44.6374Z" fill="#4A6CF7"/>
</svg>
